<svg width="1440" height="708" viewBox="0 0 1440 708" fill="none" xmlns="http://www.w3.org/2000/svg">
<mask id="mask0" mask-type="alpha" maskUnits="userSpaceOnUse" x="0" y="0" width="1441" height="707">
<path d="M0.5 0H1440.5V706.82L727 623.63L0.5 706.82V0Z" fill="url(#paint0_linear)"/>
</mask>
<g mask="url(#mask0)">
<path d="M0.5 0H1440.5V708H0.5V0Z" fill="url(#paint1_linear)"/>
<rect x="655.324" y="361.749" width="646.08" height="646.08" transform="rotate(-28.7669 655.324 361.749)" fill="url(#paint2_linear)"/>
<rect x="655.324" y="361.749" width="646.08" height="646.08" transform="rotate(-28.7669 655.324 361.749)" fill="url(#paint3_linear)"/>
<path d="M580.653 -72.4611L1161.47 -365.156L1663 642.21L1084.63 930.155L580.653 -72.4611Z" fill="url(#paint4_linear)"/>
<path d="M580.653 -72.4611L1161.47 -365.156L1663 642.21L1084.63 930.155L580.653 -72.4611Z" fill="url(#paint5_linear)"/>
</g>
<defs>
<linearGradient id="paint0_linear" x1="0.5" y1="706.82" x2="1502.59" y2="175.537" gradientUnits="userSpaceOnUse">
<stop stop-color="#0047BB"/>
<stop offset="0.56326" stop-color="#00063C"/>
<stop offset="1" stop-color="#071D49"/>
</linearGradient>
<linearGradient id="paint1_linear" x1="0.5" y1="708" x2="1503.14" y2="177.406" gradientUnits="userSpaceOnUse">
<stop stop-color="#0047BB"/>
<stop offset="0.56326" stop-color="#00063C"/>
<stop offset="1" stop-color="#071D49"/>
</linearGradient>
<linearGradient id="paint2_linear" x1="655.324" y1="1007.83" x2="1391.39" y2="880.04" gradientUnits="userSpaceOnUse">
<stop stop-color="#0047BB"/>
<stop offset="0.56326" stop-color="#00063C"/>
<stop offset="1" stop-color="#071D49"/>
</linearGradient>
<linearGradient id="paint3_linear" x1="686.569" y1="623.813" x2="1355.9" y2="431.122" gradientUnits="userSpaceOnUse">
<stop stop-color="#00063C" stop-opacity="0.5"/>
<stop offset="1" stop-color="#071C48"/>
</linearGradient>
<linearGradient id="paint4_linear" x1="1080.77" y1="932.076" x2="1723.47" y2="527.396" gradientUnits="userSpaceOnUse">
<stop stop-color="#0047BB"/>
<stop offset="0.56326" stop-color="#00063C"/>
<stop offset="1" stop-color="#071D49"/>
</linearGradient>
<linearGradient id="paint5_linear" x1="810.832" y1="319.302" x2="1393.75" y2="-102.875" gradientUnits="userSpaceOnUse">
<stop stop-color="#00063C" stop-opacity="0.5"/>
<stop offset="1" stop-color="#071C48"/>
</linearGradient>
</defs>
</svg>
