<?xml version="1.0" encoding="UTF-8" standalone="no"?><!-- Generator: Gravit.io --><svg xmlns="http://www.w3.org/2000/svg" xmlns:xlink="http://www.w3.org/1999/xlink" style="isolation:isolate" viewBox="0 0 174 185" width="174pt" height="185pt"><defs><clipPath id="_clipPath_D11MtjeI4LleH2XydJn3eNoVgjn7s8W1"><rect width="174" height="185"/></clipPath></defs><g clip-path="url(#_clipPath_D11MtjeI4LleH2XydJn3eNoVgjn7s8W1)"><g><path d=" M 100.612 58.772 Q 100.355 60.696 101.62 61.015 C 102.886 61.333 104.863 61.371 106.57 61.85 C 108.276 62.329 114.772 64.248 115.821 64.788 C 116.869 65.328 119.454 65.855 119.821 63.82 Q 120.187 61.785 119.629 60.746 Q 119.733 60.086 116.209 58.964 C 112.684 57.842 109.323 56.499 106.41 56.14 C 103.496 55.782 102.335 54.913 101.577 56.128 Q 100.819 57.343 100.612 58.772 Z " fill="rgb(240,173,78)"/><path d=" M 156.172 120.003 Q 156.234 114.511 156.136 109.68 C 156.039 104.849 156.41 103.308 155.774 99.744 C 155.139 96.181 155.28 93.544 154.324 90.916 C 153.367 88.289 152.904 85.602 151.901 83.909 C 150.897 82.216 150.442 80.408 148.604 77.404 C 146.765 74.4 146.31 72.592 144.151 70.579 C 141.991 68.566 142.045 68.456 139.052 65.298 C 136.059 62.139 134.565 60.779 132.189 59.098 C 129.813 57.417 126.44 54.756 124.677 54.058 C 122.913 53.359 120.65 52.006 118.006 51.096 Q 115.362 50.186 105.623 47.911 Q 102.215 47.446 97.107 47.327 Q 91.999 47.207 90.454 46.342 Q 89.567 45.416 89.615 44.592 Q 89.663 43.768 90.636 42.112 Q 92.056 41.221 95.407 41.356 C 98.758 41.492 102.709 41.182 107.879 42.235 Q 113.05 43.288 121.476 46.069 Q 128.035 48.811 131.184 50.98 C 134.333 53.149 138.258 56.134 140.249 57.819 C 142.241 59.504 144.735 62.118 146.677 64.407 C 148.619 66.696 153.397 73.024 154.351 75.266 C 155.304 77.509 159.782 87.244 160.191 90.041 C 160.6 92.838 162.24 98.15 162.065 103.258 C 161.89 108.366 162.09 112.318 162.074 116.766 C 162.058 121.214 162.395 122.035 161.137 122.595 C 159.879 123.155 159.062 123.931 157.845 122.898 Q 156.628 121.866 156.232 120.606 L 156.172 120.003 Z " fill="rgb(240,173,78)"/><path d=" M 105.349 33.362 Q 106.23 33.647 94.812 34.04 Q 83.394 34.434 70.834 38.205 Q 70.537 37.768 62.962 42.228 Q 55.387 46.687 46.227 54.09 Q 39.693 60.297 37.233 63.687 Q 34.774 67.076 28.59 79.87 Q 25.302 88.978 24.615 94.109 Q 23.928 99.24 23.39 104.662 Q 19.77 109.234 18.85 104.556 Q 17.93 99.878 20.875 85.063 Q 22.128 77.73 25.446 71.99 C 28.763 66.251 30.039 61.554 37.882 54.163 Q 45.724 46.772 43.977 47.959 Q 53.424 39.969 59.695 36.985 Q 65.965 34.001 77.643 29.945 Q 85.235 27.389 92.121 27.767 C 99.006 28.146 101.485 26.953 105.741 28.087 Q 109.998 29.221 110.161 31.123 Q 109.893 33.907 108.721 33.918 Q 107.55 33.928 105.349 33.362 Z " fill="rgb(240,173,78)"/><path d=" M 142.627 122.502 L 142.428 133.242 Q 141.592 138.032 142.965 138.704 Q 144.337 139.375 145.117 139.27 Q 147.165 139.057 147.452 138.371 C 147.739 137.685 148.769 132.698 148.747 130.16 C 148.724 127.622 149.276 123.81 148.951 120.103 C 148.625 116.396 149.196 114.732 148.768 110.44 C 148.34 106.149 148.882 101.166 148.268 98.047 C 147.655 94.929 146.63 89.373 145.141 86.556 C 143.652 83.738 140.575 78.005 138.701 75.776 C 136.826 73.548 134.355 70.055 132.588 68.899 Q 130.821 67.743 128.671 67.47 Q 126.817 67.583 126.633 68.854 C 126.449 70.125 126.164 71.104 127.742 72.847 C 129.319 74.59 133.251 77.679 134.539 79.816 C 135.827 81.952 139.099 87.78 140.003 90.603 C 140.906 93.426 143.214 100.532 142.945 103.268 Q 142.677 106.004 142.966 116.641 L 142.627 122.502 Z " fill="rgb(240,173,78)"/><path d=" M 138.974 149.971 Q 136.525 158.614 135.663 160.543 Q 134.801 162.473 134.7 163.462 Q 134.062 165.829 134.836 166.426 Q 135.61 167.023 136.822 167.397 Q 137.982 168.21 138.634 167.436 Q 139.286 166.661 140.639 164.453 L 143.15 156.524 Q 144.495 153.327 144.481 151.789 Q 144.468 150.252 143.742 148.886 Q 142.743 147.632 142.085 147.802 C 141.428 147.973 139.559 147.769 139.131 149.036 Q 138.703 150.303 138.974 149.971 Z " fill="rgb(240,173,78)"/><path d=" M 149.401 55.707 Q 153.285 60.285 155.619 63.449 C 157.953 66.614 159.955 69.451 161.969 73.607 C 163.982 77.762 165.543 80.494 165.892 82.688 Q 166.241 84.881 169.423 84.524 Q 172.602 83.837 172.144 81.754 C 171.686 79.671 169.539 72.772 167.645 69.713 C 165.751 66.655 161.408 59.884 158.965 56.831 Q 156.522 53.777 153.651 51.935 Q 151.665 50.855 150.8 52.4 Q 149.935 53.945 149.401 55.707 Z " fill="rgb(240,173,78)"/><path d=" M 120.304 31.473 Q 120.409 30.923 127.575 34.044 Q 134.741 37.166 143.908 43.016 Q 147.122 46.282 144.604 47.183 Q 142.086 48.084 136.677 44.947 L 128.072 40.52 Q 123.993 38.798 121.569 37.941 Q 119.146 37.084 117.582 34.132 Q 117.893 32.043 118.88 31.815 Q 119.866 31.586 120.304 31.473 Z " fill="rgb(240,173,78)"/><path d=" M 25.404 129.611 Q 29.978 125.287 30.95 123.412 Q 31.922 121.536 32.13 107.697 Q 31.552 104.407 31.848 100.671 Q 32.145 96.934 34.7 87.797 Q 36.827 79.871 39.209 76.006 C 41.591 72.141 46.358 64.741 47.337 63.744 Q 48.317 62.747 51.161 61.514 Q 53.903 61.051 54.467 62.803 Q 55.032 64.555 51.777 69.086 Q 45.364 76.611 44.288 79.146 C 43.212 81.681 41.06 86.642 40.638 88.623 C 40.216 90.603 38.602 94.461 38.414 97.977 C 38.225 101.493 37.739 108.636 37.878 111.929 Q 38.017 115.223 38.184 121.811 Q 38.864 124.111 35.929 127.541 Q 32.994 130.972 28.964 134.851 Q 25.552 134.002 25.318 132.357 Q 25.084 130.712 25.404 129.611 Z " fill="rgb(240,173,78)"/><path d=" M 51.534 119.106 Q 51.58 124.28 50.438 127.609 C 49.296 130.938 47.877 136.124 44.1 139.574 C 40.324 143.024 38.497 146.262 37.234 146.858 C 35.97 147.455 31.968 147.588 31.755 145.54 Q 31.542 143.492 35.12 139.653 L 40.729 133.649 Q 42.763 131.776 44.004 128.642 Q 45.246 125.507 45.387 119.356 Q 46.246 117.2 47.61 116.896 Q 48.974 116.591 51.327 117.741 L 51.534 119.106 Z " fill="rgb(240,173,78)"/><path d=" M 45.783 97.876 Q 44.789 106.866 45.872 107.93 Q 46.955 108.994 47.739 109.378 Q 50.382 110.233 51.146 108.274 C 51.91 106.315 51.285 101.83 52.227 98.014 C 53.17 94.199 52.868 93.128 55.267 88.421 Q 57.666 83.714 62.293 77.133 Q 67.806 71.227 70.717 69.249 Q 73.628 67.271 82.285 63.68 Q 87.247 61.88 89.78 61.271 Q 92.313 60.663 93.075 58.509 Q 92.951 55.582 89.928 55.901 C 86.905 56.221 82.025 56.361 77.942 58.252 Q 73.858 60.143 67.062 64.4 Q 62.016 67.764 58.249 72.385 C 54.483 77.006 51.775 79.861 50.247 83.779 C 48.72 87.698 47.008 92.886 46.443 95.234 Q 45.878 97.582 45.783 97.876 Z " fill="rgb(240,173,78)"/><path d=" M 45.629 158.011 Q 48.432 154.765 51.911 150.829 Q 55.391 146.894 61.459 137.567 Q 64.822 131.484 64.987 128.066 C 65.152 124.648 65.692 119.47 65.566 116.152 Q 65.439 112.834 65.369 104.927 Q 64.469 102.495 66.377 97.402 Q 68.284 92.309 73.686 84.94 Q 77.754 81.292 79.598 80.104 C 81.443 78.916 85.91 76.241 87.761 75.835 C 89.612 75.428 95.459 74.302 98.293 74.668 C 101.128 75.034 109.637 76.911 111.896 78.453 C 114.155 79.995 118.278 82.594 119.463 84.244 C 120.649 85.893 123.604 88.795 124.698 91.128 C 125.792 93.462 128.37 97.929 128.188 99.493 C 128.007 101.056 128.764 109.445 128.609 114.035 C 128.454 118.624 128.998 124.965 128.536 127.897 C 128.074 130.83 127.813 134.444 126.695 140.506 C 125.577 146.569 124.344 150.679 122.436 155.772 C 120.529 160.865 119.296 164.976 116.314 169.981 C 113.332 174.986 112.478 177.825 107.746 183.626 Q 103.013 189.427 98.76 194.15 L 97.41 196.017 Q 97.327 197.677 98.993 198.443 C 100.659 199.21 101.74 199.981 102.512 198.998 Q 103.284 198.015 109.861 191.026 Q 110.055 190.927 113.43 186.114 C 116.804 181.301 119.704 178.054 122.387 172.368 C 125.07 166.683 126.42 164.718 128.505 157.574 C 130.589 150.429 132.497 145.336 133.131 139.766 C 133.765 134.196 135.239 124.129 135.099 119.346 C 134.959 114.564 135.388 107.825 134.37 103.05 C 133.351 98.276 132.808 92.033 130.139 88.25 C 127.47 84.466 124.011 79.615 121.357 77.589 C 118.704 75.562 113.984 71.699 109.388 70.763 C 104.791 69.827 100.972 68.494 95.511 69.128 C 90.05 69.762 84.776 69.418 80.213 72.289 C 75.65 75.16 71.762 77.049 68.678 81.567 C 65.594 86.085 63.269 88.155 61.656 93.441 Q 60.043 98.726 59.607 104.685 Q 59.112 114.939 59.914 117.275 Q 60.715 119.611 58.649 128.903 Q 55.497 136.74 48.832 144.804 Q 42.167 152.867 40.719 154.637 Q 39.655 155.818 40.935 156.978 Q 42.214 158.138 44.074 158.708 L 45.629 158.011 Z " fill="rgb(240,173,78)"/><path d=" M 58.71 54.053 Q 59.76 52.762 63.476 50.643 Q 67.191 48.524 74.119 45.388 Q 78.094 43.705 79.01 43.734 Q 79.925 43.762 81.32 44.226 Q 82.496 44.728 82.508 46.046 Q 82.519 47.364 81.836 48.724 Q 81.401 49.24 79.54 49.879 Q 77.678 50.518 75.268 51.235 Q 75.23 51.052 72.35 52.432 Q 69.471 53.812 65.029 56.56 L 62.701 58.264 Q 60.915 59.122 59.995 58.617 C 59.075 58.113 58.005 57.171 58.108 56.328 Q 58.21 55.485 58.71 54.053 Z " fill="rgb(240,173,78)"/><path d=" M 27.65 54.143 Q 30.14 50.113 34.934 45.733 C 39.727 41.353 42.718 38.032 45.994 35.916 C 49.27 33.801 52.38 31.577 56.208 29.786 C 60.036 27.995 62.337 27.316 63.59 26.207 Q 64.843 25.097 64.878 22.791 Q 64.148 21.04 62.885 20.996 Q 61.622 20.952 58.503 22.188 Q 54.836 23.538 50.629 26.046 Q 46.423 28.554 37.53 35.057 Q 33.331 38.334 29.09 43.094 Q 24.849 47.853 22.951 50.561 Q 22.028 51.777 22.751 52.814 C 23.474 53.851 24.469 54.666 25.128 54.66 Q 25.787 54.654 27.65 54.143 Z " fill="rgb(240,173,78)"/><path d=" M 75.891 22.2 Q 77.276 21.528 82.395 20.824 Q 87.514 20.12 94.466 19.693 Q 101.196 19.048 107.794 20.088 Q 114.393 21.128 124.154 23.825 Q 130.539 25.525 136.571 28.767 Q 142.603 32.009 150.416 37.943 Q 155.066 42.149 157.869 44.613 Q 160.673 47.078 162.424 46.404 Q 163.448 46.248 163.95 45.072 Q 164.452 43.897 164.222 42.727 Q 162.663 40.178 158.976 37.282 C 155.29 34.386 152.851 31.772 150.054 30.113 C 147.257 28.453 145.268 27.006 138.357 23.699 Q 131.445 20.392 125.203 18.251 Q 123.365 17.389 114.71 15.634 Q 106.056 13.88 93.903 13.987 Q 83.36 13.934 78.321 15.442 Q 73.283 16.951 72.346 18.716 Q 72.296 21.279 73.764 21.706 Q 75.232 22.132 75.891 22.2 Z " fill="rgb(240,173,78)"/><path d=" M 132.397 12.111 Q 131.882 11.823 135.704 13.473 Q 139.526 15.123 143.352 17.286 Q 144.021 18.451 145.838 16.971 Q 147.656 15.491 147.345 13.443 Q 148.076 13.291 145.133 11.706 Q 142.191 10.121 137.633 8.038 Q 135.795 7.176 134.477 7.114 Q 133.158 7.052 131.779 8.456 Q 131.054 9.267 131.21 10.291 Q 131.365 11.315 132.397 12.111 Z " fill="rgb(240,173,78)"/><path d=" M 119.553 8.49 Q 117.348 7.558 112.292 7.016 C 107.235 6.475 102.91 5.854 96.615 5.983 Q 90.319 6.112 79.567 7.231 Q 75.471 7.78 69.191 9.592 Q 62.91 11.405 53.214 16.03 Q 50.003 17.229 49.036 15.554 Q 48.07 13.878 49.002 11.674 Q 48.841 9.991 56.652 7.433 C 64.464 4.875 69.571 2.853 73.517 2.013 Q 77.463 1.173 90.996 -0.191 Q 101.242 -0.647 103.441 -0.3 Q 105.641 0.046 114.879 1.503 Q 118.689 1.835 120.75 3.062 Q 122.811 4.288 122.615 7.072 Q 122.24 8.064 121.144 8.293 Q 120.047 8.522 119.553 8.49 Z " fill="rgb(240,173,78)"/><path d=" M 67.321 188.033 Q 66.953 187.817 75.294 178.811 Q 83.634 169.805 90.288 160.522 Q 91.665 158.972 94.097 152.361 C 96.528 145.751 99.18 139.284 99.806 135.545 C 100.432 131.805 101.118 126.601 100.94 123.015 C 100.762 119.429 100.954 116.353 100.764 111.302 Q 100.573 106.252 99.893 103.915 Q 97.529 101.52 95.928 102.559 Q 94.326 103.598 93.459 104.924 Q 92.959 106.319 92.972 107.783 C 92.985 109.248 93.735 111.291 93.414 116.419 C 93.093 121.547 93.409 124.18 92.502 129.24 C 91.595 134.299 91.547 137.228 89.47 142.445 C 87.393 147.661 88.333 146.335 84.655 152.664 C 80.976 158.993 78.519 162.675 72.068 169.98 C 65.616 177.285 63.597 180.818 61.921 181.711 Q 60.245 182.604 58.265 182.256 Q 56.871 181.902 56.93 180.364 Q 56.99 178.826 56.985 178.24 L 58.139 176.253 Q 58.719 175.662 66.042 167.471 C 73.365 159.28 75.4 157.578 78.138 152.575 C 80.876 147.572 82.462 144.776 83.888 140.444 C 85.314 136.112 86.3 131.71 86.632 127.827 C 86.964 123.944 87.521 120.717 87.323 114.862 C 87.125 109.006 86.302 106.964 87.45 104.318 Q 88.598 101.672 91.425 98.426 Q 92.216 96.808 95.583 96.705 Q 98.95 96.602 101.742 97.676 Q 106.299 99.686 106.472 102.686 C 106.645 105.686 107.06 111.32 106.822 117.545 C 106.584 123.771 107.19 126.108 106.294 132.34 C 105.397 138.571 105.413 140.401 103.34 146.13 C 101.267 151.859 101.656 154.418 95.656 163.11 C 89.655 171.802 86.98 175.633 81.831 181.169 C 76.681 186.706 73.133 191.203 72.406 191.795 C 71.679 192.387 70.082 193.939 68.973 192.704 Q 67.864 191.469 67.723 192.129 Q 67.206 191.548 67.052 190.671 Q 66.897 189.794 67.321 188.033 Z " fill="rgb(240,173,78)"/><path d=" M 80.631 198.788 Q 79.781 197.807 79.507 195.796 Q 78.995 195.911 81.096 193.366 Q 83.197 190.822 88.312 185.505 Q 89.401 184.544 92.119 181.335 C 94.836 178.126 96.575 176.098 98.275 173.74 C 99.975 171.382 101.459 169.502 102.358 167.664 C 103.257 165.825 103.725 164.869 105.236 161.891 C 106.747 158.912 108.293 155.714 108.9 153.951 C 109.507 152.189 110.444 150.497 110.867 148.699 C 111.291 146.902 112.248 143.379 112.594 141.106 C 112.94 138.834 114.063 133.296 114.221 130.476 C 114.379 127.656 114.701 122.674 114.61 120.662 C 114.519 118.649 114.652 112.937 114.632 110.595 C 114.611 108.252 115.101 105.758 114.009 102.254 C 112.916 98.749 112.765 98.164 111.243 95.762 Q 109.721 93.359 105.857 91.087 Q 103.308 89.804 101.205 89.334 Q 99.102 88.865 94.66 88.904 Q 93.197 89.063 90.814 89.963 Q 88.43 90.862 85.52 93.035 Q 83.533 94.615 82.474 96.235 Q 81.414 97.855 80.22 100.794 Q 79.214 102.95 79.274 104.268 C 79.335 105.585 79.149 106.661 79.178 109.931 C 79.206 113.201 79.322 115.25 79.296 117.837 C 79.27 120.424 79.732 123.056 79.127 126.331 C 78.521 129.607 78.335 130.633 77.055 134.94 C 75.775 139.246 75.933 140.514 73.481 144.831 C 71.03 149.148 70.407 150.471 68.426 152.783 C 66.445 155.094 66.255 155.633 63.403 158.782 C 60.551 161.931 59.973 162.814 57.604 165.422 Q 55.236 168.03 54.411 168.574 Q 53.293 169.121 52.262 168.446 Q 51.231 167.772 50.339 166.316 Q 49.943 165.636 50.471 164.606 C 50.999 163.577 52.257 162.345 55.592 158.606 C 58.927 154.867 60.667 152.997 62.261 151.08 C 63.855 149.162 65.355 147.685 66.506 145.332 C 67.657 142.979 67.95 143.025 69.616 138.227 C 71.282 133.429 72.095 131.518 72.605 128.487 C 73.115 125.457 73.384 122.721 73.412 120.28 C 73.439 117.839 73.56 115.007 73.388 112.08 C 73.216 109.153 72.753 106.522 73.174 104.37 Q 73.594 102.219 75.682 95.416 Q 77.508 92.13 79.105 90.603 Q 80.702 89.075 84.824 85.964 Q 87.249 84.186 89.49 83.727 C 91.731 83.268 94.848 82.459 97.634 82.923 C 100.42 83.386 102.42 83.271 105.213 84.467 Q 108.006 85.662 112.966 89.084 Q 116.313 92.276 117.608 95.193 C 118.902 98.11 120.439 100.781 120.504 102.587 Q 120.568 104.392 120.62 110.298 Q 120.72 116.105 120.747 119.131 C 120.774 122.157 120.782 128.698 120.41 130.702 C 120.037 132.707 119.491 137.202 119.065 138.816 C 118.64 140.431 118.575 144.043 118.049 145.317 Q 117.523 146.591 115.383 153.004 Q 114.245 156.772 113.144 159.173 Q 112.042 161.575 109.309 167.114 Q 108.831 168.241 106.473 172.069 Q 104.115 175.897 101.563 179.873 L 95.518 186.32 L 87.305 195.862 L 84.645 198.667 Q 84.068 199.697 82.602 199.466 C 81.135 199.235 81.482 199.769 80.631 198.788 Z " fill="rgb(240,173,78)"/></g></g></svg>