<?xml version="1.0" encoding="UTF-8" standalone="no"?><!-- Generator: Gravit.io --><svg xmlns="http://www.w3.org/2000/svg" xmlns:xlink="http://www.w3.org/1999/xlink" style="isolation:isolate" viewBox="144.161 140 294.385 287.183" width="294.385pt" height="287.183pt"><defs><clipPath id="_clipPath_yNbiD6XevG8iyMGz5Dyb7pqsZw1YM8ja"><rect x="144.161" y="140" width="294.385" height="287.183"/></clipPath></defs><g clip-path="url(#_clipPath_yNbiD6XevG8iyMGz5Dyb7pqsZw1YM8ja)"><g><g><path d=" M 418.801 213.309 C 405.639 190.756 387.785 172.902 365.235 159.741 C 342.681 146.579 318.06 140 291.352 140 C 264.648 140 240.019 146.581 217.47 159.741 C 194.918 172.901 177.065 190.756 163.902 213.309 C 150.742 235.86 144.161 260.486 144.161 287.187 C 144.161 319.26 153.519 348.102 172.239 373.718 C 190.957 399.337 215.137 417.064 244.779 426.901 C 248.229 427.542 250.783 427.091 252.444 425.561 C 254.105 424.03 254.935 422.111 254.935 419.814 C 254.935 419.431 254.902 415.982 254.838 409.465 C 254.773 402.947 254.742 397.262 254.742 392.41 L 250.333 393.173 C 247.523 393.688 243.977 393.906 239.696 393.844 C 235.418 393.785 230.976 393.336 226.377 392.502 C 221.776 391.676 217.497 389.76 213.536 386.757 C 209.576 383.754 206.766 379.824 205.104 374.972 L 203.188 370.562 C 201.91 367.626 199.899 364.364 197.152 360.789 C 194.404 357.21 191.626 354.784 188.815 353.507 L 187.473 352.546 C 186.579 351.908 185.75 351.138 184.982 350.244 C 184.216 349.351 183.642 348.457 183.258 347.561 C 182.874 346.665 183.193 345.93 184.216 345.353 C 185.24 344.777 187.09 344.497 189.774 344.497 L 193.606 345.07 C 196.162 345.582 199.323 347.112 203.093 349.668 C 206.862 352.223 209.96 355.545 212.388 359.632 C 215.328 364.871 218.87 368.864 223.025 371.612 C 227.176 374.359 231.361 375.731 235.577 375.731 C 239.792 375.731 243.433 375.411 246.501 374.775 C 249.566 374.136 252.441 373.176 255.125 371.899 C 256.275 363.335 259.406 356.756 264.515 352.157 C 257.233 351.392 250.686 350.239 244.871 348.707 C 239.059 347.172 233.053 344.682 226.857 341.229 C 220.658 337.78 215.515 333.498 211.428 328.39 C 207.34 323.279 203.985 316.569 201.367 308.266 C 198.749 299.959 197.439 290.377 197.439 279.518 C 197.439 264.055 202.487 250.897 212.581 240.035 C 207.853 228.41 208.299 215.378 213.922 200.94 C 217.627 199.789 223.122 200.653 230.404 203.527 C 237.687 206.402 243.02 208.865 246.407 210.907 C 249.794 212.948 252.508 214.678 254.553 216.081 C 266.438 212.76 278.703 211.099 291.351 211.099 C 303.999 211.099 316.267 212.76 328.152 216.081 L 335.435 211.483 C 340.415 208.416 346.296 205.604 353.064 203.049 C 359.836 200.495 365.014 199.791 368.593 200.942 C 374.341 215.381 374.853 228.412 370.123 240.037 C 380.216 250.899 385.266 264.06 385.266 279.52 C 385.266 290.38 383.952 299.991 381.337 308.362 C 378.719 316.733 375.335 323.436 371.184 328.486 C 367.028 333.534 361.853 337.783 355.657 341.231 C 349.46 344.681 343.452 347.171 337.64 348.706 C 331.825 350.24 325.279 351.394 317.997 352.16 C 324.638 357.908 327.96 366.98 327.96 379.373 L 327.96 419.809 C 327.96 422.106 328.758 424.023 330.357 425.556 C 331.954 427.086 334.476 427.536 337.927 426.895 C 367.572 417.059 391.753 399.331 410.47 373.713 C 429.185 348.096 438.546 319.255 438.546 287.182 C 438.539 260.484 431.955 235.86 418.801 213.309 Z " fill="rgb(255,255,255)"/></g></g></g></svg>