<?xml version="1.0" encoding="UTF-8" standalone="no"?><!-- Generator: Gravit.io --><svg xmlns="http://www.w3.org/2000/svg" xmlns:xlink="http://www.w3.org/1999/xlink" style="isolation:isolate" viewBox="0 0 599 132" width="599pt" height="132pt"><defs><clipPath id="_clipPath_wQIzsYRaGSsOMeuEQXhHD4IDw62SyQNq"><rect width="599" height="132"/></clipPath></defs><g clip-path="url(#_clipPath_wQIzsYRaGSsOMeuEQXhHD4IDw62SyQNq)"><g><path d=" M 30 93.153 L 42.416 89.197 L 42.416 40.415 L 30 44.37 L 30 93.153 Z " fill="rgb(240,173,78)"/><path d=" M 55.603 66.779 L 51.565 73.539 L 84.541 72.863 Q 85.109 72.799 85.214 73.539 C 85.319 74.278 85.529 92.953 85.214 93.143 Q 84.899 93.333 96.655 89.763 L 96.655 40.415 L 85.214 43.795 L 85.214 66.103 Q 85.348 66.715 84.541 66.779 Q 83.734 66.842 55.603 66.779 Z " fill="rgb(240,173,78)"/><path d=" M 164.616 92.499 L 213.379 92.499 L 218.202 85.853 L 175.869 85.188 L 175.869 38 L 165.152 39.994 L 164.616 92.499 Z " fill="rgb(240,173,78)"/><path d=" M 147.784 41.719 L 140.121 50.193 Q 137.826 49.5 136.29 49.541 Q 134.753 49.582 121.603 49.541 Q 119.269 50.356 117.133 51.496 Q 114.998 52.637 112.025 55.408 Q 110.548 56.813 110.109 58.667 Q 109.67 60.521 109.471 74.312 Q 109.69 78.162 113.302 80.83 Q 116.914 83.499 122.88 84.742 L 138.206 84.742 Q 143.394 83.377 145.868 81.482 Q 148.343 79.588 150.977 74.964 L 150.977 59.971 Q 150.218 55.937 147.784 54.104 Q 145.349 52.271 145.23 52.148 L 155.446 45.63 Q 159.896 50.132 160.555 52.148 C 161.213 54.165 162.83 58.585 162.47 58.667 Q 162.111 58.748 161.832 77.571 Q 160.894 83.336 158.001 86.045 C 155.107 88.755 148.243 93.603 143.952 93.868 Q 139.662 94.132 117.133 93.868 Q 106.717 90.975 104.362 88.001 C 102.008 85.027 98.576 81.238 98.616 77.571 Q 98.655 73.904 98.616 56.711 Q 99.613 49.989 103.085 47.585 C 106.557 45.182 106.138 44.795 108.832 43.674 Q 111.526 42.554 116.495 40.415 L 140.121 40.415 L 147.784 41.719 Z " fill="rgb(240,173,78)"/><path d=" M 265.544 40.738 L 257.881 49.213 Q 255.587 48.52 254.05 48.561 Q 252.514 48.601 239.364 48.561 Q 237.029 49.376 234.894 50.516 Q 232.759 51.657 229.785 54.427 Q 228.309 55.833 227.87 57.687 Q 227.431 59.54 227.231 73.331 Q 227.451 77.182 231.062 79.85 Q 234.674 82.519 240.641 83.761 L 255.966 83.761 Q 261.154 82.396 263.628 80.502 Q 266.103 78.607 268.737 73.983 L 268.737 58.99 Q 267.978 54.957 265.544 53.124 Q 263.11 51.29 262.99 51.168 L 273.207 44.649 Q 277.656 49.151 278.315 51.168 C 278.973 53.185 280.59 57.605 280.231 57.687 Q 279.871 57.768 279.592 76.591 Q 278.654 82.356 275.761 85.065 C 272.867 87.774 266.003 92.623 261.713 92.887 Q 257.422 93.152 234.894 92.887 Q 224.477 89.995 222.123 87.021 C 219.768 84.046 216.336 80.258 216.376 76.591 Q 216.416 72.924 216.376 55.731 Q 217.373 49.009 220.846 46.605 C 224.318 44.201 223.899 43.814 226.593 42.694 Q 229.286 41.574 234.255 39.435 L 257.881 39.435 L 265.544 40.738 Z " fill="rgb(240,173,78)"/><path d=" M 323.019 62.701 L 317.53 74.365 L 335.37 91.519 L 350.465 91.519 L 350.465 38 L 335.37 40.745 L 334.684 74.365 L 323.019 62.701 Z " fill="rgb(240,173,78)"/><path d=" M 317.53 58.5 L 312.091 70.06 L 297.811 56.46 L 297.811 92.499 L 282.172 92.499 L 282.172 39.461 L 297.811 38.781 L 317.53 58.5 Z " fill="rgb(240,173,78)"/></g></g></svg>